<svg width="48" height="48" viewBox="0 0 48 48" fill="none" xmlns="http://www.w3.org/2000/svg">
<rect width="48" height="48" fill="#A4834E"/>
<path d="M15.375 24C15.375 24.0995 15.4145 24.1949 15.4848 24.2652C15.5552 24.3355 15.6506 24.375 15.75 24.375H31.3444L25.2347 30.4847C25.1643 30.5551 25.1248 30.6505 25.1248 30.75C25.1248 30.8495 25.1643 30.945 25.2347 31.0153C25.3051 31.0857 25.4005 31.1252 25.5 31.1252C25.5995 31.1252 25.695 31.0857 25.7653 31.0153L32.5153 24.2653C32.5502 24.2305 32.5778 24.1892 32.5967 24.1436C32.6156 24.0981 32.6253 24.0493 32.6253 24C32.6253 23.9507 32.6156 23.9019 32.5967 23.8564C32.5778 23.8109 32.5502 23.7695 32.5153 23.7347L25.7653 16.9847C25.7305 16.9499 25.6891 16.9222 25.6436 16.9034C25.5981 16.8845 25.5493 16.8748 25.5 16.8748C25.4507 16.8748 25.4019 16.8845 25.3564 16.9034C25.3109 16.9222 25.2695 16.9499 25.2347 16.9847C25.1999 17.0196 25.1722 17.0609 25.1534 17.1064C25.1345 17.152 25.1248 17.2008 25.1248 17.25C25.1248 17.2993 25.1345 17.3481 25.1534 17.3936C25.1722 17.4391 25.1999 17.4805 25.2347 17.5153L31.3444 23.625H15.75C15.6506 23.625 15.5552 23.6645 15.4848 23.7349C15.4145 23.8052 15.375 23.9006 15.375 24Z" fill="white"/>
</svg>
