<svg width="48" height="48" viewBox="0 0 48 48" fill="none" xmlns="http://www.w3.org/2000/svg">
<rect width="48" height="48" fill="#A4834E"/>
<path d="M32.625 24C32.625 24.0994 32.5855 24.1948 32.5152 24.2651C32.4448 24.3355 32.3494 24.375 32.25 24.375H16.6556L22.7653 30.4847C22.8357 30.555 22.8752 30.6505 22.8752 30.75C22.8752 30.8495 22.8357 30.9449 22.7653 31.0153C22.6949 31.0856 22.5995 31.1252 22.5 31.1252C22.4005 31.1252 22.305 31.0856 22.2347 31.0153L15.4847 24.2653C15.4498 24.2305 15.4222 24.1891 15.4033 24.1436C15.3844 24.098 15.3747 24.0492 15.3747 24C15.3747 23.9507 15.3844 23.9019 15.4033 23.8564C15.4222 23.8108 15.4498 23.7695 15.4847 23.7347L22.2347 16.9847C22.2695 16.9498 22.3109 16.9222 22.3564 16.9033C22.4019 16.8845 22.4507 16.8748 22.5 16.8748C22.5493 16.8748 22.5981 16.8845 22.6436 16.9033C22.6891 16.9222 22.7305 16.9498 22.7653 16.9847C22.8001 17.0195 22.8278 17.0609 22.8466 17.1064C22.8655 17.1519 22.8752 17.2007 22.8752 17.25C22.8752 17.2992 22.8655 17.348 22.8466 17.3936C22.8278 17.4391 22.8001 17.4804 22.7653 17.5153L16.6556 23.625H32.25C32.3494 23.625 32.4448 23.6645 32.5152 23.7348C32.5855 23.8051 32.625 23.9005 32.625 24Z" fill="white"/>
</svg>
